<svg width="194" height="61" viewBox="0 0 194 61" fill="none" xmlns="http://www.w3.org/2000/svg">
<rect width="193.867" height="60.3649" rx="8.18246" fill="#135E77"/>
<path d="M26.6011 17.2664H29.2891L18.39 44.7718H15.7389L26.6011 17.2664ZM34.8125 17.2664H37.5004L26.6014 44.7718H23.9503L34.8125 17.2664Z" fill="#BDAC8C"/>
<path d="M50.6082 43.6826L45.9687 17.3924H46.7051L51.1973 42.9462H51.271L66.3676 17.3924H67.1777L51.6392 43.6826H50.6082ZM92.8664 42.9462L92.6823 43.6826H75.4132L81.01 17.3924H97.6899L97.5427 18.1288H81.5991L79.1321 29.617H94.0078L93.8606 30.3534H78.948L76.2601 42.9462H92.8664ZM107.615 34.956C107.468 36.3307 107.591 37.558 107.983 38.6381C108.401 39.6937 109.014 40.5896 109.824 41.3261C110.659 42.0625 111.666 42.6271 112.844 43.0198C114.022 43.388 115.323 43.5722 116.747 43.5722C117.483 43.5722 118.342 43.4862 119.324 43.3144C120.331 43.118 121.276 42.7744 122.16 42.2834C123.043 41.7679 123.792 41.056 124.406 40.1478C125.019 39.2395 125.326 38.0613 125.326 36.613C125.326 35.6311 125.105 34.821 124.663 34.1828C124.246 33.5446 123.694 33.0045 123.006 32.5627C122.319 32.1208 121.534 31.7649 120.65 31.4948C119.766 31.2003 118.858 30.918 117.925 30.648C116.992 30.3779 116.084 30.0834 115.2 29.7643C114.317 29.4451 113.531 29.0524 112.844 28.586C112.156 28.095 111.592 27.4936 111.15 26.7817C110.733 26.0699 110.524 25.1862 110.524 24.1306C110.549 22.8296 110.819 21.7127 111.334 20.7799C111.85 19.8471 112.525 19.0861 113.359 18.497C114.194 17.9079 115.151 17.4783 116.231 17.2083C117.311 16.9137 118.416 16.7664 119.545 16.7664C120.92 16.7664 122.172 16.9137 123.301 17.2083C124.43 17.5028 125.388 17.9815 126.173 18.6443C126.983 19.2825 127.585 20.1171 127.977 21.1481C128.395 22.1791 128.554 23.431 128.456 24.9039H127.72C127.818 23.5292 127.67 22.3755 127.278 21.4427C126.909 20.5099 126.357 19.7489 125.621 19.1598C124.884 18.5707 123.988 18.1533 122.933 17.9079C121.902 17.6379 120.773 17.5028 119.545 17.5028C118.539 17.5028 117.545 17.6256 116.563 17.8711C115.581 18.1165 114.697 18.5093 113.912 19.0493C113.151 19.5894 112.525 20.2767 112.034 21.1113C111.543 21.9459 111.285 22.9524 111.261 24.1306C111.236 25.088 111.432 25.8858 111.85 26.524C112.267 27.1622 112.819 27.7023 113.507 28.1441C114.194 28.5614 114.979 28.9174 115.863 29.2119C116.747 29.5065 117.655 29.7888 118.588 30.0588C119.521 30.3288 120.429 30.6234 121.313 30.9425C122.221 31.2616 123.019 31.6667 123.706 32.1576C124.418 32.6486 124.982 33.25 125.4 33.9619C125.842 34.6737 126.063 35.5574 126.063 36.613C126.063 38.1349 125.743 39.3991 125.105 40.4055C124.492 41.3874 123.706 42.173 122.749 42.7621C121.816 43.3267 120.809 43.7194 119.729 43.9404C118.649 44.1613 117.655 44.2718 116.747 44.2718C115.274 44.2718 113.899 44.0876 112.623 43.7194C111.371 43.3512 110.291 42.7866 109.383 42.0257C108.474 41.2402 107.787 40.2705 107.321 39.1168C106.879 37.9385 106.732 36.5516 106.879 34.956H107.615ZM143.123 18.1288L143.27 17.3924H163.043L162.896 18.1288H153.396L147.946 43.6826H147.173L152.623 18.1288H143.123ZM170.886 43.6826L176.483 17.3924H177.219L171.585 43.6826H170.886Z" fill="#C0D5D6"/>
</svg>
