<svg width="96" height="29" viewBox="0 0 96 29" fill="none" xmlns="http://www.w3.org/2000/svg">
<rect width="96" height="29" rx="4" fill="#135E77"/>
<path d="M13.004 7.842H14.318L8.99 21.288H7.694L13.004 7.842ZM17.0181 7.842H18.3321L13.0041 21.288H11.7081L17.0181 7.842Z" fill="#BDAC8C"/>
<path d="M25.474 21L23.206 8.148H23.566L25.762 20.64H25.798L33.178 8.148H33.574L25.978 21H25.474ZM46.132 20.64L46.042 21H37.6L40.336 8.148H48.49L48.418 8.508H40.624L39.418 14.124H46.69L46.618 14.484H39.328L38.014 20.64H46.132ZM53.3419 16.734C53.2699 17.406 53.3299 18.006 53.5219 18.534C53.7259 19.05 54.0259 19.488 54.4219 19.848C54.8299 20.208 55.3219 20.484 55.8979 20.676C56.4739 20.856 57.1099 20.946 57.8059 20.946C58.1659 20.946 58.5859 20.904 59.0659 20.82C59.5579 20.724 60.0199 20.556 60.4519 20.316C60.8839 20.064 61.2499 19.716 61.5499 19.272C61.8499 18.828 61.9999 18.252 61.9999 17.544C61.9999 17.064 61.8919 16.668 61.6759 16.356C61.4719 16.044 61.2019 15.78 60.8659 15.564C60.5299 15.348 60.1459 15.174 59.7139 15.042C59.2819 14.898 58.8379 14.76 58.3819 14.628C57.9259 14.496 57.4819 14.352 57.0499 14.196C56.6179 14.04 56.2339 13.848 55.8979 13.62C55.5619 13.38 55.2859 13.086 55.0699 12.738C54.8659 12.39 54.7639 11.958 54.7639 11.442C54.7759 10.806 54.9079 10.26 55.1599 9.804C55.4119 9.348 55.7419 8.976 56.1499 8.688C56.5579 8.4 57.0259 8.19 57.5539 8.058C58.0819 7.914 58.6219 7.842 59.1739 7.842C59.8459 7.842 60.4579 7.914 61.0099 8.058C61.5619 8.202 62.0299 8.436 62.4139 8.76C62.8099 9.072 63.1039 9.48 63.2959 9.984C63.4999 10.488 63.5779 11.1 63.5299 11.82H63.1699C63.2179 11.148 63.1459 10.584 62.9539 10.128C62.7739 9.672 62.5039 9.3 62.1439 9.012C61.7839 8.724 61.3459 8.52 60.8299 8.4C60.3259 8.268 59.7739 8.202 59.1739 8.202C58.6819 8.202 58.1959 8.262 57.7159 8.382C57.2359 8.502 56.8039 8.694 56.4199 8.958C56.0479 9.222 55.7419 9.558 55.5019 9.966C55.2619 10.374 55.1359 10.866 55.1239 11.442C55.1119 11.91 55.2079 12.3 55.4119 12.612C55.6159 12.924 55.8859 13.188 56.2219 13.404C56.5579 13.608 56.9419 13.782 57.3739 13.926C57.8059 14.07 58.2499 14.208 58.7059 14.34C59.1619 14.472 59.6059 14.616 60.0379 14.772C60.4819 14.928 60.8719 15.126 61.2079 15.366C61.5559 15.606 61.8319 15.9 62.0359 16.248C62.2519 16.596 62.3599 17.028 62.3599 17.544C62.3599 18.288 62.2039 18.906 61.8919 19.398C61.5919 19.878 61.2079 20.262 60.7399 20.55C60.2839 20.826 59.7919 21.018 59.2639 21.126C58.7359 21.234 58.2499 21.288 57.8059 21.288C57.0859 21.288 56.4139 21.198 55.7899 21.018C55.1779 20.838 54.6499 20.562 54.2059 20.19C53.7619 19.806 53.4259 19.332 53.1979 18.768C52.9819 18.192 52.9099 17.514 52.9819 16.734H53.3419ZM70.6998 8.508L70.7718 8.148H80.4378L80.3658 8.508H75.7218L73.0578 21H72.6798L75.3438 8.508H70.6998ZM84.2718 21L87.0078 8.148H87.3678L84.6138 21H84.2718Z" fill="#C0D5D6"/>
</svg>
